<svg width="24" height="24" viewBox="0 0 24 24" fill="none" xmlns="http://www.w3.org/2000/svg">
<path d="M13.0067 13V18.585L14.8347 16.757L16.2497 18.172L12.0067 22.414L7.76373 18.172L9.17873 16.757L11.0067 18.585V13H13.0067ZM12.0067 2C13.7238 1.99986 15.381 2.63082 16.6631 3.77287C17.9453 4.91491 18.763 6.48838 18.9607 8.194C20.205 8.53339 21.2905 9.29926 22.0274 10.3578C22.7643 11.4163 23.1057 12.7001 22.9921 13.9848C22.8784 15.2696 22.3169 16.4735 21.4056 17.3862C20.4943 18.2989 19.2913 18.8623 18.0067 18.978V16.964C18.4674 16.8989 18.9104 16.7426 19.3099 16.5042C19.7094 16.2659 20.0574 15.9503 20.3335 15.5759C20.6096 15.2015 20.8083 14.7758 20.918 14.3237C21.0277 13.8716 21.0462 13.4022 20.9723 12.9429C20.8985 12.4836 20.7338 12.0436 20.4879 11.6487C20.242 11.2537 19.9199 10.9118 19.5404 10.6428C19.1608 10.3738 18.7314 10.1832 18.2773 10.0821C17.8232 9.98103 17.3536 9.97147 16.8957 10.054C17.0523 9.32489 17.0439 8.56997 16.8709 7.84455C16.698 7.11913 16.365 6.44158 15.8963 5.86153C15.4276 5.28147 14.8351 4.81361 14.1622 4.49219C13.4893 4.17078 12.753 4.00397 12.0072 4.00397C11.2615 4.00397 10.5252 4.17078 9.85226 4.49219C9.17933 4.81361 8.58682 5.28147 8.11813 5.86153C7.64944 6.44158 7.31644 7.11913 7.14351 7.84455C6.97059 8.56997 6.96212 9.32489 7.11873 10.054C6.20639 9.88267 5.26335 10.0808 4.49707 10.6048C3.7308 11.1287 3.20406 11.9357 3.03273 12.848C2.8614 13.7603 3.05952 14.7034 3.58349 15.4697C4.10747 16.2359 4.91439 16.7627 5.82673 16.934L6.00673 16.964V18.978C4.72218 18.8623 3.51914 18.2989 2.60786 17.3862C1.69659 16.4735 1.13506 15.2696 1.0214 13.9848C0.907751 12.7001 1.24921 11.4163 1.9861 10.3578C2.72299 9.29926 3.80844 8.53339 5.05273 8.194C5.25044 6.48838 6.06814 4.91491 7.35031 3.77287C8.63248 2.63082 10.2897 1.99986 12.0067 2Z" fill="white"/>
</svg>
