<svg width="32" height="32" viewBox="0 0 32 32" fill="none" xmlns="http://www.w3.org/2000/svg">
<rect width="32" height="32" rx="3" fill="#FFD400"/>
<path d="M13.3303 24.6771L7.05216 18.399C6.88203 18.2288 6.75442 18.0417 6.66935 17.8375C6.58428 17.6333 6.54175 17.4207 6.54175 17.1995C6.54175 16.9783 6.58428 16.7656 6.66935 16.5615C6.75442 16.3573 6.88203 16.1701 7.05216 16L12.922 10.1557L11.0079 8.24167C10.7867 8.02049 10.6719 7.75677 10.6634 7.45052C10.6549 7.14427 10.7612 6.87205 10.9824 6.63385C11.2036 6.39566 11.4758 6.27656 11.799 6.27656C12.1223 6.27656 12.403 6.39566 12.6412 6.63385L22.0074 16C22.1775 16.1701 22.3009 16.3573 22.3774 16.5615C22.454 16.7656 22.4923 16.9783 22.4923 17.1995C22.4923 17.4207 22.454 17.6333 22.3774 17.8375C22.3009 18.0417 22.1775 18.2288 22.0074 18.399L15.7292 24.6771C15.5591 24.8472 15.372 24.9748 15.1678 25.0599C14.9636 25.145 14.751 25.1875 14.5298 25.1875C14.3086 25.1875 14.0959 25.145 13.8917 25.0599C13.6876 24.9748 13.5004 24.8472 13.3303 24.6771ZM14.5298 11.7635L9.06831 17.225H19.9912L14.5298 11.7635ZM24.7126 25.1875C24.1001 25.1875 23.5812 24.9706 23.1558 24.5367C22.7305 24.1029 22.5178 23.5712 22.5178 22.9417C22.5178 22.4823 22.6326 22.0484 22.8623 21.6401C23.092 21.2318 23.3515 20.8319 23.6407 20.4406L24.1256 19.8281C24.2787 19.641 24.4786 19.5431 24.7253 19.5346C24.972 19.5261 25.172 19.6155 25.3251 19.8026L25.8355 20.4406C26.1077 20.8319 26.3629 21.2318 26.6011 21.6401C26.8393 22.0484 26.9584 22.4823 26.9584 22.9417C26.9584 23.5712 26.7372 24.1029 26.2949 24.5367C25.8525 24.9706 25.3251 25.1875 24.7126 25.1875Z" fill="black"/>
</svg>
