<svg width="24" height="24" viewBox="0 0 24 24" fill="none" xmlns="http://www.w3.org/2000/svg">
<rect width="24" height="24" rx="2.25" fill="#FFD400"/>
<path d="M16.4142 10.0755V6.09979C16.4142 5.93083 16.3738 5.8094 16.293 5.73548C16.2122 5.66156 16.068 5.6246 15.8603 5.6246H15.0814V4.5H16.5007C17.0776 4.5 17.4642 4.632 17.6604 4.89599C17.8681 5.15998 17.9719 5.50317 17.9719 5.92555V9.69535C17.9719 10.3078 18.0873 10.7513 18.3181 11.0259C18.5488 11.3004 18.9181 11.4377 19.4258 11.4377H19.7027V12.5465H19.4258C18.9181 12.5465 18.5488 12.6837 18.3181 12.9583C18.0873 13.2328 17.9719 13.6658 17.9719 14.2571V18.0744C17.9719 18.4968 17.8681 18.84 17.6604 19.104C17.4642 19.368 17.0776 19.5 16.5007 19.5H15.0814V18.3754H15.8603C16.068 18.3754 16.2122 18.3384 16.293 18.2645C16.3738 18.1906 16.4142 18.0639 16.4142 17.8844V13.8611C16.4142 13.312 16.5238 12.8738 16.743 12.5465C16.9623 12.2191 17.2911 12.0343 17.7296 11.9921C17.3027 11.9287 16.9738 11.7386 16.743 11.4219C16.5238 11.0945 16.4142 10.6457 16.4142 10.0755Z" fill="#2A2A2A"/>
<path d="M11.0835 6.9868H12.9701L12.6759 13.6711H11.3777L11.0835 6.9868ZM11.1354 16.9023V14.9541H12.8836V16.9023H11.1354Z" fill="#2A2A2A"/>
<path d="M7.61838 6.09979V10.0755C7.61838 10.6457 7.50299 11.0945 7.27222 11.4219C7.05298 11.7386 6.72989 11.9287 6.30295 11.9921C6.74143 12.0343 7.07029 12.2191 7.28953 12.5465C7.50876 12.8738 7.61838 13.312 7.61838 13.8611V17.8844C7.61838 18.0639 7.65877 18.1906 7.73954 18.2645C7.82031 18.3384 7.96455 18.3754 8.17225 18.3754H8.95112V19.5H7.53184C6.9549 19.5 6.56258 19.368 6.35488 19.104C6.14718 18.84 6.04333 18.4968 6.04333 18.0744V14.2571C6.04333 13.6658 5.92794 13.2328 5.69716 12.9583C5.47792 12.6837 5.11445 12.5465 4.60674 12.5465H4.3125V11.4377H4.60674C5.11445 11.4377 5.47792 11.3004 5.69716 11.0259C5.92794 10.7513 6.04333 10.3078 6.04333 9.69535V5.92555C6.04333 5.50317 6.14718 5.15998 6.35488 4.89599C6.56258 4.632 6.9549 4.5 7.53184 4.5H8.95112V5.6246H8.17225C7.96455 5.6246 7.82031 5.66156 7.73954 5.73548C7.65877 5.8094 7.61838 5.93083 7.61838 6.09979Z" fill="#2A2A2A"/>
</svg>
