<svg width="24" height="24" viewBox="0 0 24 24" fill="none" xmlns="http://www.w3.org/2000/svg">
<path d="M12.0001 3C12.6582 2.99976 13.3062 3.16192 13.8867 3.4721C14.4671 3.78227 14.9621 4.23088 15.3276 4.77814C15.6932 5.32541 15.9181 5.95442 15.9824 6.60941C16.0466 7.26439 15.9483 7.92512 15.6961 8.533C14.8623 8.62159 14.0563 8.88397 13.3301 9.3032C12.6039 9.72244 11.9737 10.2892 11.4801 10.967C10.5173 10.8408 9.63339 10.3687 8.99309 9.63877C8.35278 8.90886 7.99983 7.97096 8.00006 7C8.00006 5.93913 8.42149 4.92172 9.17163 4.17157C9.92178 3.42142 10.9392 3 12.0001 3ZM17.7641 8.672C18.0227 7.77826 18.07 6.83662 17.9021 5.92148C17.7342 5.00633 17.3558 4.14277 16.7968 3.39903C16.2378 2.65528 15.5134 2.05174 14.681 1.63608C13.8486 1.22042 12.931 1.00404 12.0006 1.00404C11.0701 1.00404 10.1525 1.22042 9.32008 1.63608C8.48768 2.05174 7.76335 2.65528 7.20432 3.39903C6.6453 4.14277 6.2669 5.00633 6.09903 5.92148C5.93116 6.83662 5.97841 7.77826 6.23706 8.672C5.33373 8.89483 4.4946 9.32469 3.78598 9.92761C3.07736 10.5305 2.51866 11.29 2.15403 12.146C1.7894 13.0019 1.62884 13.931 1.68502 14.8597C1.74121 15.7884 2.0126 16.6913 2.47777 17.4971C2.94293 18.3029 3.58911 18.9894 4.36525 19.5025C5.14139 20.0156 6.02622 20.3412 6.94982 20.4535C7.87342 20.5658 8.81049 20.4618 9.68697 20.1496C10.5635 19.8375 11.3553 19.3258 12.0001 18.655C12.6448 19.3257 13.4366 19.8373 14.313 20.1494C15.1895 20.4615 16.1265 20.5655 17.05 20.4532C17.9735 20.3409 18.8583 20.0154 19.6344 19.5023C20.4105 18.9893 21.0566 18.3029 21.5218 17.4972C21.987 16.6915 22.2585 15.7887 22.3147 14.8601C22.371 13.9314 22.2106 13.0024 21.8461 12.1465C21.4817 11.2905 20.9231 10.531 20.2147 9.92802C19.5062 9.32501 18.6673 8.89502 17.7641 8.672ZM13.1541 16.934C13.4941 16.1678 13.6697 15.3388 13.6697 14.5005C13.6697 13.6622 13.4941 12.8332 13.1541 12.067C13.6627 11.4032 14.3665 10.9155 15.1665 10.6724C15.9666 10.4292 16.8228 10.4429 17.6147 10.7114C18.4066 10.9799 19.0945 11.4898 19.5817 12.1695C20.0689 12.8491 20.3309 13.6643 20.3309 14.5005C20.3309 15.3367 20.0689 16.1519 19.5817 16.8315C19.0945 17.5112 18.4066 18.0211 17.6147 18.2896C16.8228 18.5581 15.9666 18.5718 15.1665 18.3286C14.3665 18.0855 13.6627 17.5978 13.1541 16.934ZM11.3641 12.967C11.6845 13.7394 11.7549 14.5928 11.5653 15.4073C11.3758 16.2218 10.9358 16.9564 10.3071 17.5079C9.67853 18.0594 8.89292 18.4 8.0607 18.482C7.22848 18.564 6.3915 18.3831 5.66736 17.9649C4.94323 17.5466 4.36835 16.912 4.02352 16.1501C3.67868 15.3883 3.58122 14.5376 3.74483 13.7175C3.90844 12.8974 4.3249 12.1492 4.93568 11.578C5.54646 11.0068 6.32086 10.6414 7.15006 10.533C7.6436 11.2107 8.27368 11.7774 8.99966 12.1966C9.72565 12.6158 10.5304 12.8783 11.3641 12.967Z" fill="black"/>
</svg>
